<?xml version="1.0" encoding="UTF-8" standalone="no"?>
<svg
   xmlns:dc="http://purl.org/dc/elements/1.1/"
   xmlns:cc="http://creativecommons.org/ns#"
   xmlns:rdf="http://www.w3.org/1999/02/22-rdf-syntax-ns#"
   xmlns:svg="http://www.w3.org/2000/svg"
   xmlns="http://www.w3.org/2000/svg"
   viewBox="0 0 2292.0933 260.96133"
   height="260.96133"
   width="2292.0933"
   xml:space="preserve"
   id="svg2"
   version="1.1"><metadata
     id="metadata8"><rdf:RDF><cc:Work
         rdf:about=""><dc:format>image/svg+xml</dc:format><dc:type
           rdf:resource="http://purl.org/dc/dcmitype/StillImage" /></cc:Work></rdf:RDF></metadata><defs
     id="defs6"><clipPath
       id="clipPath18"
       clipPathUnits="userSpaceOnUse"><path
         id="path16"
         d="M 0,195.721 H 1719.069 V 0 H 0 Z" /></clipPath></defs><g
     transform="matrix(1.3333333,0,0,-1.3333333,0,260.96133)"
     id="g10"><g
       id="g12"><g
         clip-path="url(#clipPath18)"
         id="g14"><g
           transform="translate(1398.8749,92.1086)"
           id="g20"><path
             id="path22"
             style="fill:#be1300;fill-opacity:1;fill-rule:nonzero;stroke:none"
             d="m 0,0 c 0,-19.361 -8.343,-30.735 -21.255,-30.735 -14.599,0 -25.195,14.126 -25.195,35.156 0,18.954 9.071,31.056 22.06,31.056 h 0.08 C -9.542,35.477 0,22.24 0,0 m -21.979,43.071 h -0.079 c -28.91,0 -44.037,-20.495 -44.037,-40.741 0,-23.224 18.275,-40.74 42.508,-40.74 25.051,0 43.234,17.54 43.234,41.706 0,22.675 -17.895,39.775 -41.626,39.775" /></g><g
           transform="translate(1026.0522,92.1086)"
           id="g24"><path
             id="path26"
             style="fill:#be1300;fill-opacity:1;fill-rule:nonzero;stroke:none"
             d="m 0,0 c 0,-19.361 -8.343,-31.87 -21.255,-31.87 -14.599,0 -25.195,15.261 -25.195,36.291 0,18.954 9.071,32.191 22.059,32.191 h 0.081 C -9.543,36.612 0,22.24 0,0 m -21.979,43.071 h -0.08 c -28.91,0 -44.036,-20.495 -44.036,-40.741 0,-23.224 18.275,-40.74 42.508,-40.74 25.051,0 43.234,17.54 43.234,41.706 0,22.675 -17.895,39.775 -41.626,39.775" /></g><g
           transform="translate(1240.1571,87.7958)"
           id="g28"><path
             id="path30"
             style="fill:#be1300;fill-opacity:1;fill-rule:nonzero;stroke:none"
             d="m 0,0 v -29.714 l -3.099,-0.694 c -7.285,-1.644 -16.35,-3.689 -24.774,-3.689 -28.95,0 -47.656,15.708 -47.656,40.018 0,28.489 24.678,41.463 47.608,41.463 10.362,0 25.321,-4.116 25.321,-4.116 v -18.58 c 0,0 -7.186,15.086 -24.762,15.086 -11.795,0 -22.456,-6.892 -26.528,-18.839 -1.355,-4.179 -2.073,-8.68 -2.073,-13.005 0,-24.626 14.714,-34.512 29.296,-34.512 2.182,0 5.115,0.353 6.801,1.351 1.689,1.045 2.553,3.09 2.553,6.072 v 16.421 c 0,10.129 -7.307,13.121 -7.307,13.121 H 5.291 C 5.291,10.383 0,9.064 0,0" /></g><g
           transform="translate(1581.4513,87.7958)"
           id="g32"><path
             id="path34"
             style="fill:#be1300;fill-opacity:1;fill-rule:nonzero;stroke:none"
             d="m 0,0 v -29.714 l -3.099,-0.694 c -7.285,-1.644 -16.35,-3.689 -24.774,-3.689 -28.95,0 -47.656,15.708 -47.656,40.018 0,28.489 24.678,41.463 47.608,41.463 10.362,0 25.321,-4.116 25.321,-4.116 v -18.58 c 0,0 -7.186,15.086 -24.762,15.086 -11.795,0 -22.456,-6.892 -26.528,-18.839 -1.355,-4.179 -2.073,-8.68 -2.073,-13.005 0,-24.626 14.714,-34.512 29.296,-34.512 2.183,0 5.115,0.353 6.801,1.351 1.689,1.045 2.553,3.09 2.553,6.072 v 16.421 c 0,10.129 -7.307,13.121 -7.307,13.121 H 5.291 C 5.291,10.383 0,9.064 0,0" /></g><g
           transform="translate(460.2752,133.411)"
           id="g36"><path
             id="path38"
             style="fill:#be1300;fill-opacity:1;fill-rule:nonzero;stroke:none"
             d="m 0,0 c 4.669,-1.951 3.607,-8.065 1.689,-12.886 -0.951,-2.659 -11.809,-28.678 -16.824,-40.705 -1.875,5.178 -14.092,39.539 -14.737,41.388 -1.558,4.388 -1.421,7.68 2.449,12.203 h -31.26 c 6.671,-4.135 8.472,-8.083 12.307,-18.078 6.477,-16.706 15.406,-40.483 22.461,-59.333 l 0.169,-0.452 h 8.274 L 9.293,-17.684 C 12.011,-10.97 16.869,-2.869 22.467,0 Z" /></g><g
           transform="translate(542.5721,67.5757)"
           id="g40"><path
             id="path42"
             style="fill:#be1300;fill-opacity:1;fill-rule:nonzero;stroke:none"
             d="m 0,0 c -3.963,-4.481 -14.428,-4.192 -15.936,-4.192 -5.115,0 -7.895,0.158 -9.875,1.07 -2.097,0.882 -2.468,3.634 -2.468,9.089 V 22.94 h 9.577 c 8.649,0 14.57,-0.485 16.315,-4.688 v 18.173 c -1.652,-4.181 -7.304,-4.923 -16.315,-4.923 h -9.577 v 25.007 c 0,0.867 0.704,1.571 1.572,1.571 h 14.266 c 7.083,0 10.559,-1.179 13.454,-4.741 2.896,-3.561 4.761,-8.923 4.761,-8.923 v 21.419 h -58.129 c 1.829,-1.222 6.601,-5.562 6.601,-17.621 L -45.771,6.001 c 0,-14.917 -7.29,-18.029 -7.29,-18.029 H 7.195 v 22.94 C 7.195,10.912 3.964,4.481 0,0" /></g><g
           transform="translate(1294.7283,63.384)"
           id="g44"><path
             id="path46"
             style="fill:#be1300;fill-opacity:1;fill-rule:nonzero;stroke:none"
             d="m 0,0 c -5.115,0 -7.895,0.158 -9.874,1.07 -2.098,0.882 -2.468,3.634 -2.468,9.088 v 16.974 h 9.577 c 8.648,0 14.57,-0.485 16.314,-4.689 V 40.617 C 11.898,36.435 6.246,35.694 -2.765,35.694 h -9.577 v 23.173 c 0,3.405 0,3.405 4.288,3.405 h 11.55 c 7.082,0 10.558,-1.18 13.454,-4.741 2.896,-3.561 4.761,-8.923 4.761,-8.923 v 21.419 h -58.697 c 1.83,-1.222 6.601,-5.563 6.601,-17.622 l -0.017,-42.212 c 0,-14.918 -7.289,-18.029 -7.289,-18.029 h 60.822 v 22.94 c 0,0 -3.231,-6.431 -7.194,-10.912 C 11.973,-0.29 1.508,0 0,0" /></g><g
           transform="translate(1629.1812,55.548)"
           id="g48"><path
             id="path50"
             style="fill:#be1300;fill-opacity:1;fill-rule:nonzero;stroke:none"
             d="m 0,0 c 0,0 -7.289,3.111 -7.289,18.029 l -0.018,42.212 c 0,12.059 4.772,16.4 6.602,17.622 h -30.342 c 1.829,-1.222 6.601,-5.563 6.601,-17.622 L -24.463,18.029 C -24.463,3.111 -31.753,0 -31.753,0 Z" /></g><g
           transform="translate(349.5553,55.5481)"
           id="g52"><path
             id="path54"
             style="fill:#be1300;fill-opacity:1;fill-rule:nonzero;stroke:none"
             d="m 0,0 c 0,0 -7.29,3.111 -7.29,18.029 l -0.017,42.212 c 0,12.059 4.772,16.4 6.602,17.622 h -21.779 c 1.83,-1.222 6.602,-5.563 6.602,-17.622 l -0.013,-31.633 -43.304,49.255 h -19.039 c 1.83,-1.222 6.602,-5.563 6.602,-17.622 L -71.653,18.029 C -71.653,3.111 -78.943,0 -78.943,0 h 23.302 c 0,0 -7.29,3.111 -7.29,18.029 L -62.944,55.114 -16.781,0 Z" /></g><g
           transform="translate(748.7279,55.548)"
           id="g56"><path
             id="path58"
             style="fill:#be1300;fill-opacity:1;fill-rule:nonzero;stroke:none"
             d="m 0,0 c 0,0 -7.289,3.111 -7.289,18.029 l -0.018,42.212 c 0,12.059 4.772,16.4 6.602,17.622 h -30.002 c 1.83,-1.222 6.601,-5.563 6.601,-17.622 L -24.123,18.029 C -24.123,3.111 -31.412,0 -31.412,0 Z" /></g><g
           transform="translate(392.7495,55.548)"
           id="g60"><path
             id="path62"
             style="fill:#be1300;fill-opacity:1;fill-rule:nonzero;stroke:none"
             d="m 0,0 c 0,0 -7.289,3.111 -7.289,18.029 l -0.018,42.212 c 0,12.059 4.772,16.4 6.602,17.622 h -30.116 c 1.83,-1.222 6.602,-5.563 6.602,-17.622 L -24.236,18.029 C -24.236,3.111 -31.526,0 -31.526,0 Z" /></g><g
           transform="translate(1665.0334,85.6804)"
           id="g64"><path
             id="path66"
             style="fill:#be1300;fill-opacity:1;fill-rule:nonzero;stroke:none"
             d="m 0,0 c 4.706,11.39 10.016,24.133 10.016,24.133 0,0 4.594,-12.683 8.737,-24.133 z m 54.036,-30.132 c -6.671,4.135 -8.472,8.083 -12.307,18.078 C 35.252,4.651 26.323,28.429 19.267,47.278 l -0.168,0.453 H 9.691 l -24.766,-60.179 c -2.718,-6.714 -7.576,-14.815 -13.174,-17.684 h 22.921 c -4.669,1.951 -3.607,8.065 -1.689,12.885 0.333,0.932 1.642,4.171 3.393,8.446 h 25.56 c 1.777,-4.919 3.091,-8.56 3.289,-9.128 1.558,-4.388 1.42,-7.681 -2.449,-12.203 z" /></g><g
           transform="translate(681.4551,103.5255)"
           id="g68"><path
             id="path70"
             style="fill:#be1300;fill-opacity:1;fill-rule:nonzero;stroke:none"
             d="m 0,0 c -11.104,5.216 -14.955,8.284 -15.183,14.804 -0.187,5.349 3.44,10.455 11.398,10.455 11.708,0 17.791,-6.455 21.283,-13.595 l -0.024,16.668 c -1.979,0.653 -11.916,3.179 -19.985,3.179 -16.951,0 -28.333,-9.953 -28.333,-23.244 0,-13.117 10.381,-18.757 23.311,-24.951 9.287,-4.563 14.442,-7.598 14.442,-14.612 0,-6.543 -3.722,-11.579 -11.553,-11.579 -12.833,0 -22.057,11.826 -25.006,19.427 l 0.391,-19.823 c 1.436,-0.734 7.079,-3.551 11.067,-4.598 3.54,-0.929 7.666,-1.793 11.9,-1.793 17.015,0 30.026,8.333 30.026,24.223 C 23.734,-13.615 13.087,-6.031 0,0" /></g><g
           transform="translate(1088.9227,55.548)"
           id="g72"><path
             id="path74"
             style="fill:#be1300;fill-opacity:1;fill-rule:nonzero;stroke:none"
             d="m 0,0 c 0,0 -7.289,3.111 -7.289,18.029 v 16.598 h 9.576 c 8.649,0 14.57,-0.485 16.314,-4.688 V 48.453 C 16.95,44.271 11.299,43.53 2.287,43.53 h -9.576 v 23.4 c 0,3.405 0,3.405 4.288,3.405 h 11.55 c 7.082,0 10.558,-1.18 13.454,-4.741 2.895,-3.561 4.76,-8.923 4.76,-8.923 v 21.192 h -58.356 c 1.83,-1.222 6.601,-5.563 6.601,-17.622 L -25.009,18.029 C -25.009,3.111 -32.298,0 -32.298,0 Z" /></g><g
           transform="translate(803.7352,122.2509)"
           id="g76"><path
             id="path78"
             style="fill:#be1300;fill-opacity:1;fill-rule:nonzero;stroke:none"
             d="m 0,0 c 0,3.405 0,3.405 4.289,3.405 h 3.65 c 7.082,0 10.558,-1.179 13.454,-4.741 2.895,-3.561 4.76,-8.923 4.76,-8.923 V 11.16 h -69.799 v -21.419 c 0,0 1.865,5.362 4.761,8.923 2.896,3.562 6.372,4.741 13.454,4.741 h 3.65 c 4.289,0 4.289,0 4.289,-3.405 v -48.674 c 0,-14.917 -7.29,-18.029 -7.29,-18.029 H 7.289 c 0,0 -7.289,3.112 -7.289,18.029 z" /></g><g
           transform="translate(243.529,90.3856)"
           id="g80"><path
             id="path82"
             style="fill:#be1300;fill-opacity:1;fill-rule:nonzero;stroke:none"
             d="m 0,0 0.017,25.404 c 0,12.059 -4.772,16.399 -6.601,17.621 H 15.928 C 14.098,41.803 9.327,37.463 9.327,25.404 L 9.344,0.396 c 0,0 3.501,-36.516 -30.105,-37.1 0,0 -34.762,-1.909 -34.762,27.372 l 0.017,34.736 c 0,12.059 -4.772,16.399 -6.602,17.621 h 30.116 c -1.83,-1.222 -6.602,-5.562 -6.602,-17.621 l 0.017,-29.546 c 0,-24.807 18.803,-24.192 18.803,-24.192 0,0 19.774,-3.67 19.774,28.334" /></g><g
           transform="translate(886.5939,133.2439)"
           id="g84"><path
             id="path86"
             style="fill:#be1300;fill-opacity:1;fill-rule:nonzero;stroke:none"
             d="m 0,0 c 0,0 9.116,-4.845 5.772,-11.98 l -11.529,-22.688 -12.13,22.04 C -22.145,-4.778 -14.299,0 -14.299,0 h -33.368 c 0,0 7.11,-3.767 12.644,-13.166 l 17.304,-29.704 v -16.797 c 0,-14.917 -7.289,-18.029 -7.289,-18.029 H 6.609 c 0,0 -7.289,3.112 -7.289,18.029 v 17.711 l 14.531,27.228 C 19.343,-4.121 28.741,0 28.741,0 Z" /></g><g
           transform="translate(626.1888,73.0481)"
           id="g88"><path
             id="path90"
             style="fill:#be1300;fill-opacity:1;fill-rule:nonzero;stroke:none"
             d="M 0,0 C -3.438,5.649 -8.663,14.092 -11.245,18.867 -5.702,21.176 2.74,26.549 2.74,37.836 v 0.021 c 0.042,0.555 0.07,1.121 0.07,1.706 0,6.808 -2.938,12.581 -8.28,16.258 -4.932,3.311 -10.972,4.542 -22.287,4.542 h -30.737 c 1.832,-1.222 6.61,-5.563 6.61,-17.622 L -51.901,0.529 c 0,-14.918 -7.299,-18.029 -7.299,-18.029 h 31.548 c 0,0 -7.299,3.111 -7.299,18.029 v 14.778 h 2.4 c 3.553,0 5.593,-1.235 7.523,-4.55 1.199,-2.121 2.35,-4.244 3.472,-6.308 2.202,-4.056 5.044,-9.462 7.115,-12.633 4.896,-7.471 8.847,-10.722 23.86,-10.24 0,0 2.558,0.09 4.51,0.257 0,0 -5.145,3.731 -13.929,18.167 m -15.412,37.874 c 0,-5.975 -1.766,-10.278 -5.556,-13.541 l -0.004,-0.006 c -2.271,-1.992 -6.097,-2.961 -11.697,-2.961 h -2.282 v 28.008 c 0,2.223 0.23,3.295 0.791,3.802 0.918,0.75 2.666,1.13 5.195,1.13 6.552,0 13.553,-4.317 13.553,-16.432" /></g><g
           transform="translate(1486.0336,73.0481)"
           id="g92"><path
             id="path94"
             style="fill:#be1300;fill-opacity:1;fill-rule:nonzero;stroke:none"
             d="M 0,0 C -3.437,5.649 -8.663,14.092 -11.245,18.867 -5.702,21.176 2.74,26.549 2.74,37.836 v 0.021 c 0.042,0.555 0.07,1.121 0.07,1.706 0,6.808 -2.938,12.581 -8.28,16.258 -4.931,3.311 -10.972,4.542 -22.287,4.542 h -30.737 c 1.832,-1.222 6.61,-5.563 6.61,-17.622 L -51.901,0.529 c 0,-14.918 -7.299,-18.029 -7.299,-18.029 h 31.548 c 0,0 -7.299,3.111 -7.299,18.029 v 14.778 h 2.4 c 3.553,0 5.593,-1.235 7.523,-4.55 1.199,-2.121 2.35,-4.244 3.472,-6.308 2.202,-4.056 5.044,-9.462 7.115,-12.633 4.896,-7.471 8.847,-10.722 23.86,-10.24 0,0 2.558,0.09 4.51,0.257 0,0 -5.145,3.731 -13.929,18.167 m -15.412,37.874 c 0,-5.975 -1.766,-10.278 -5.556,-13.541 l -0.004,-0.006 c -2.271,-1.992 -6.096,-2.961 -11.697,-2.961 h -2.282 v 28.008 c 0,2.223 0.23,3.295 0.791,3.802 0.918,0.75 2.666,1.13 5.195,1.13 6.552,0 13.553,-4.317 13.553,-16.432" /></g><g
           transform="translate(128.6347,62.0966)"
           id="g96"><path
             id="path98"
             style="fill:#ffffff;fill-opacity:1;fill-rule:nonzero;stroke:none"
             d="m 0,0 h -11.701 l -4.366,-4.166 v 14.57 c 0,0.224 -0.125,0.424 -0.324,0.549 -1.148,0.598 -1.871,1.771 -1.871,3.068 v 56.584 c 0.05,1.247 0.998,2.27 2.22,2.444 0.299,0.05 0.524,0.3 0.524,0.599 v 5.888 c 0,0.324 -0.274,0.599 -0.599,0.599 h -4.266 c -1.622,9.406 -6.512,18.063 -13.747,24.35 -7.584,6.586 -17.314,10.203 -27.368,10.203 -10.054,0 -19.759,-3.617 -27.344,-10.203 -7.26,-6.287 -12.125,-14.944 -13.771,-24.35 h -4.242 c -0.324,0 -0.598,-0.275 -0.598,-0.599 v -5.913 c 0,-0.274 0.224,-0.524 0.499,-0.574 1.272,-0.174 2.22,-1.272 2.22,-2.544 V 14.021 c 0,-1.297 -0.699,-2.47 -1.846,-3.068 -0.2,-0.1 -0.324,-0.3 -0.324,-0.524 V 0 h -15.643 v 127.537 l 122.547,0 z m -95.179,73.049 h 27.793 c 1.272,-0.174 2.22,-1.272 2.22,-2.544 V 14.021 c 0,-1.297 -0.698,-2.47 -1.871,-3.068 -0.174,-0.1 -0.299,-0.3 -0.299,-0.524 V 0 h -23.477 l -4.391,-4.166 v 14.57 c 0,0.224 -0.124,0.424 -0.324,0.549 -1.148,0.598 -1.871,1.771 -1.871,3.068 v 56.584 c 0.075,1.247 0.998,2.27 2.22,2.444 m -1.272,7.086 c 1.547,7.634 5.663,14.644 11.576,19.784 6.487,5.638 14.794,8.732 23.377,8.732 8.607,0 16.915,-3.094 23.402,-8.732 5.912,-5.14 10.004,-12.15 11.576,-19.784 z M -55.96,10.953 c -1.147,0.598 -1.871,1.771 -1.871,3.068 v 56.584 c 0.05,1.247 0.998,2.27 2.221,2.444 h 27.767 c 1.298,-0.174 2.246,-1.272 2.246,-2.544 V 14.021 c 0,-1.297 -0.699,-2.47 -1.871,-3.068 -0.175,-0.1 -0.3,-0.3 -0.3,-0.524 V 0 h -23.476 l -4.391,-4.166 v 14.57 c 0,0.224 -0.125,0.424 -0.325,0.549 M 0,-9.855 c 0,-13.347 -10.154,-23.301 -18.661,-29.289 -11.128,-7.834 -26.596,-13.922 -42.613,-16.765 -15.992,2.843 -31.485,8.931 -42.587,16.765 -8.532,5.988 -18.686,15.942 -18.686,29.289 v 3.244 h 15.643 v -11.502 c 0,-0.349 0.249,-0.598 0.598,-0.598 h 10.504 c 0.324,0 0.598,0.249 0.598,0.598 v 11.502 h 27.868 v -11.502 c 0,-0.349 0.249,-0.598 0.574,-0.598 h 10.528 c 0.324,0 0.599,0.249 0.599,0.598 v 11.502 h 27.867 v -11.502 c 0,-0.349 0.25,-0.598 0.574,-0.598 h 10.528 c 0.325,0 0.599,0.249 0.599,0.598 V -6.611 H 0 Z m -128.635,143.48 V -9.855 c 0,-27.368 34.255,-46.603 67.361,-52.242 33.132,5.639 67.361,24.874 67.361,52.242 v 143.48 z" /></g><g
           transform="translate(102.1144,142.2317)"
           id="g100"><path
             id="path102"
             style="fill:#000000;fill-opacity:1;fill-rule:nonzero;stroke:none"
             d="m 0,0 h -69.931 c 1.547,7.634 5.664,14.644 11.576,19.784 6.487,5.638 14.795,8.732 23.377,8.732 8.607,0 16.915,-3.094 23.402,-8.732 C -5.663,14.644 -1.572,7.634 0,0" /></g><g
           transform="translate(63.4691,132.6013)"
           id="g104"><path
             id="path106"
             style="fill:#000000;fill-opacity:1;fill-rule:nonzero;stroke:none"
             d="m 0,0 v -56.483 c 0,-1.298 -0.699,-2.47 -1.871,-3.069 -0.175,-0.1 -0.3,-0.3 -0.3,-0.524 v -10.429 h -23.476 l -4.391,-4.166 v 14.57 c 0,0.225 -0.125,0.424 -0.324,0.549 -1.148,0.599 -1.871,1.771 -1.871,3.069 V 0.1 c 0.074,1.247 0.997,2.27 2.22,2.445 H -2.22 C -0.948,2.37 0,1.272 0,0" /></g><g
           transform="translate(103.0375,132.6013)"
           id="g108"><path
             id="path110"
             style="fill:#000000;fill-opacity:1;fill-rule:nonzero;stroke:none"
             d="m 0,0 v -56.483 c 0,-1.298 -0.698,-2.47 -1.871,-3.069 -0.175,-0.1 -0.3,-0.3 -0.3,-0.524 v -10.429 h -23.476 l -4.391,-4.166 v 14.57 c 0,0.225 -0.125,0.424 -0.324,0.549 -1.148,0.599 -1.871,1.771 -1.871,3.069 V 0.1 c 0.049,1.247 0.997,2.27 2.22,2.445 H -2.245 C -0.948,2.37 0,1.272 0,0" /></g><g
           transform="translate(87.8189,20.5326)"
           id="g112"><path
             id="path114"
             style="fill:#be1300;fill-opacity:1;fill-rule:nonzero;stroke:none"
             d="m 0,0 c -3.218,0 -5.164,1.123 -5.164,2.994 0,1.072 0.748,1.796 1.871,1.796 1.147,0 1.671,-0.873 1.671,-1.721 0,-0.724 -0.499,-1.373 -0.973,-1.597 L -2.694,1.422 -2.62,1.347 c 0.3,-0.249 1.223,-0.474 1.847,-0.474 1.821,0 2.744,1.098 2.744,3.243 0,1.921 -1.023,3.019 -2.769,3.019 -1.148,0 -1.921,-0.274 -2.87,-0.798 l -0.648,0.524 0.274,6.511 H 4.565 L 4.366,10.703 H -2.819 L -2.969,7.634 -2.994,7.51 -2.869,7.559 c 0.973,0.449 1.896,0.649 3.093,0.649 2.396,0 4.99,-1.023 4.99,-3.892 C 5.214,2.245 3.568,0 0,0 m -14.296,-0.05 c -3.517,0 -5.513,1.223 -5.513,3.343 0,1.322 0.848,2.32 2.569,2.994 l 0.125,0.05 -0.125,0.075 c -1.446,0.848 -2.17,1.921 -2.17,3.218 0,2.47 1.996,4.067 5.09,4.067 3.318,0 4.839,-1.622 4.839,-3.119 0,-1.197 -0.873,-2.146 -2.594,-2.794 l -0.175,-0.05 0.175,-0.075 c 2.021,-0.873 2.994,-2.046 2.994,-3.593 0,-2.345 -2.221,-4.116 -5.215,-4.116 m -8.607,12.025 -3.667,-6.511 -2.67,-5.339 h -2.719 v 0.723 l 7.01,9.63 0.075,0.125 h -4.715 c -1.871,0 -2.295,-0.449 -2.669,-2.021 h -0.749 l 0.125,4.79 h 9.979 z M -36.749,0.324 h -8.233 v 0.799 c 1.596,0.05 2.37,0.224 2.37,0.998 v 8.332 c 0,0.624 -0.125,0.998 -0.399,1.273 -0.35,0.324 -0.948,0.474 -1.921,0.474 h -0.15 v 0.798 l 5.963,0.399 V 2.121 c 0,-0.774 0.773,-0.948 2.37,-0.998 z M 24.749,34.953 V 23.451 c 0,-0.349 -0.274,-0.598 -0.599,-0.598 H 13.622 c -0.325,0 -0.574,0.249 -0.574,0.598 V 34.953 H -14.819 V 23.451 c 0,-0.349 -0.275,-0.598 -0.599,-0.598 h -10.529 c -0.324,0 -0.573,0.249 -0.573,0.598 V 34.953 H -54.388 V 23.451 c 0,-0.349 -0.274,-0.598 -0.599,-0.598 H -65.49 c -0.349,0 -0.599,0.249 -0.599,0.598 V 34.953 H -81.731 V 31.71 c 0,-13.348 10.154,-23.302 18.686,-29.29 11.102,-7.834 26.595,-13.922 42.587,-16.765 16.017,2.843 31.485,8.931 42.612,16.765 8.508,5.988 18.662,15.942 18.662,29.29 v 3.243 z" /></g><g
           transform="translate(128.6347,189.6339)"
           id="g116"><path
             id="path118"
             style="fill:#000000;fill-opacity:1;fill-rule:nonzero;stroke:none"
             d="m 0,0 v -127.537 h -11.701 l -4.366,-4.166 v 14.569 c 0,0.225 -0.125,0.425 -0.324,0.55 -1.148,0.598 -1.871,1.771 -1.871,3.068 v 56.583 c 0.05,1.248 0.998,2.271 2.22,2.445 0.299,0.05 0.524,0.3 0.524,0.599 v 5.888 c 0,0.324 -0.274,0.599 -0.599,0.599 h -4.266 c -1.622,9.405 -6.512,18.062 -13.747,24.35 -7.584,6.586 -17.314,10.203 -27.368,10.203 -10.054,0 -19.759,-3.617 -27.344,-10.203 -7.26,-6.288 -12.125,-14.945 -13.771,-24.35 h -4.242 c -0.324,0 -0.598,-0.275 -0.598,-0.599 v -5.913 c 0,-0.274 0.224,-0.524 0.499,-0.574 1.272,-0.174 2.22,-1.272 2.22,-2.545 v -56.483 c 0,-1.297 -0.699,-2.47 -1.846,-3.068 -0.2,-0.1 -0.324,-0.3 -0.324,-0.525 v -10.428 h -15.643 V 0 Z" /></g><g
           transform="translate(51.0696,21.6552)"
           id="g120"><path
             id="path122"
             style="fill:#ffffff;fill-opacity:1;fill-rule:nonzero;stroke:none"
             d="M 0,0 V -0.799 H -8.233 V 0 c 1.597,0.05 2.37,0.225 2.37,0.998 v 8.333 c 0,0.623 -0.125,0.998 -0.399,1.272 -0.349,0.324 -0.948,0.474 -1.921,0.474 h -0.15 v 0.799 l 5.963,0.399 V 0.998 C -2.37,0.225 -1.597,0.05 0,0" /></g><g
           transform="translate(64.9162,33.905)"
           id="g124"><path
             id="path126"
             style="fill:#ffffff;fill-opacity:1;fill-rule:nonzero;stroke:none"
             d="m 0,0 v -1.397 l -3.668,-6.512 -2.669,-5.339 h -2.719 v 0.724 l 7.01,9.63 0.075,0.125 h -4.715 c -1.871,0 -2.296,-0.449 -2.67,-2.021 h -0.748 L -9.979,0 Z" /></g><g
           transform="translate(73.5233,21.3808)"
           id="g128"><path
             id="path130"
             style="fill:#ffffff;fill-opacity:1;fill-rule:nonzero;stroke:none"
             d="m 0,0 c -1.746,0 -2.819,1.397 -2.819,2.719 0,0.874 0.299,1.597 0.948,2.271 l 0.025,0.05 0.05,-0.025 c 0.199,-0.1 0.449,-0.2 0.698,-0.25 C 1.397,3.942 2.27,3.218 2.27,2.046 2.27,0.798 1.372,0 0,0 m -0.324,11.975 c 1.522,0 2.519,-0.898 2.519,-2.245 0,-0.973 -0.299,-1.697 -0.997,-2.495 L 1.173,7.21 1.123,7.235 c -1.722,0.624 -3.393,1.372 -3.393,2.919 0,1.197 0.973,1.821 1.946,1.821 M 2.22,6.811 2.046,6.886 2.22,6.936 c 1.722,0.648 2.595,1.597 2.595,2.794 0,1.497 -1.522,3.119 -4.84,3.119 -3.094,0 -5.089,-1.597 -5.089,-4.067 0,-1.297 0.723,-2.37 2.17,-3.219 l 0.125,-0.074 -0.125,-0.05 c -1.721,-0.674 -2.57,-1.672 -2.57,-2.994 0,-2.121 1.996,-3.343 5.514,-3.343 2.994,0 5.214,1.771 5.214,4.116 0,1.547 -0.973,2.72 -2.994,3.593" /></g><g
           transform="translate(75.7937,23.4264)"
           id="g132"><path
             id="path134"
             style="fill:#be1300;fill-opacity:1;fill-rule:nonzero;stroke:none"
             d="m 0,0 c 0,-1.247 -0.898,-2.046 -2.27,-2.046 -1.747,0 -2.82,1.397 -2.82,2.72 0,0.873 0.3,1.596 0.948,2.27 l 0.025,0.05 0.05,-0.025 C -3.867,2.869 -3.618,2.77 -3.368,2.72 -0.873,1.896 0,1.173 0,0" /></g><g
           transform="translate(75.7188,31.1108)"
           id="g136"><path
             id="path138"
             style="fill:#be1300;fill-opacity:1;fill-rule:nonzero;stroke:none"
             d="m 0,0 c 0,-0.973 -0.299,-1.697 -0.998,-2.495 l -0.025,-0.025 -0.05,0.025 c -1.721,0.624 -3.393,1.372 -3.393,2.919 0,1.197 0.973,1.821 1.946,1.821 C -0.998,2.245 0,1.347 0,0" /></g><g
           transform="translate(93.0331,24.8486)"
           id="g140"><path
             id="path142"
             style="fill:#ffffff;fill-opacity:1;fill-rule:nonzero;stroke:none"
             d="m 0,0 c 0,-2.071 -1.647,-4.316 -5.214,-4.316 -3.219,0 -5.165,1.123 -5.165,2.994 0,1.072 0.749,1.796 1.872,1.796 1.147,0 1.671,-0.873 1.671,-1.721 0,-0.724 -0.499,-1.373 -0.973,-1.597 l -0.1,-0.05 0.075,-0.075 c 0.3,-0.249 1.223,-0.474 1.846,-0.474 1.822,0 2.745,1.098 2.745,3.243 0,1.921 -1.023,3.019 -2.77,3.019 -1.147,0 -1.921,-0.274 -2.869,-0.798 l -0.648,0.524 0.274,6.511 h 8.607 L -0.848,6.387 h -7.185 l -0.15,-3.069 -0.025,-0.125 0.125,0.05 C -7.11,3.692 -6.187,3.892 -4.99,3.892 -2.595,3.892 0,2.869 0,0" /></g><g
           transform="translate(126.6645,18.4058)"
           id="g144"><path
             id="path146"
             style="fill:#000000;fill-opacity:1;fill-rule:nonzero;stroke:none"
             d="m 0,0 h 0.33 c 0.386,0 0.698,0.135 0.698,0.462 0,0.287 -0.203,0.48 -0.643,0.48 C 0.202,0.942 0.073,0.923 0,0.904 Z M -0.019,-1.787 H -0.716 V 1.364 C -0.44,1.422 -0.055,1.461 0.441,1.461 1.009,1.461 1.266,1.364 1.487,1.23 1.652,1.097 1.78,0.846 1.78,0.538 1.78,0.192 1.523,-0.077 1.156,-0.191 V -0.23 c 0.294,-0.116 0.459,-0.346 0.55,-0.768 0.092,-0.48 0.147,-0.673 0.221,-0.789 H 1.174 c -0.092,0.116 -0.146,0.404 -0.238,0.77 -0.055,0.346 -0.239,0.499 -0.624,0.499 h -0.331 z m -1.852,1.654 c 0,-1.403 0.99,-2.517 2.348,-2.517 1.321,0 2.294,1.114 2.294,2.497 0,1.403 -0.973,2.536 -2.312,2.536 -1.34,0 -2.33,-1.133 -2.33,-2.516 m 5.413,0 c 0,-1.788 -1.34,-3.19 -3.083,-3.19 -1.725,0 -3.101,1.402 -3.101,3.19 0,1.748 1.376,3.151 3.101,3.151 1.743,0 3.083,-1.403 3.083,-3.151" /></g></g></g></g></svg>